<svg version="1.1" id="Layer_1" xmlns="http://www.w3.org/2000/svg" xmlns:xlink="http://www.w3.org/1999/xlink" x="0px" y="0px"
	 width="100%" viewBox="0 0 1280 757" enable-background="new 0 0 1280 757" xml:space="preserve">
<path fill="#2960F6" opacity="1.000000" stroke="none" 
	d="
M782.000000,758.000000 
	C521.365234,758.000000 261.230469,758.000000 1.047847,758.000000 
	C1.047847,505.729523 1.047847,253.459015 1.047847,1.094254 
	C427.551483,1.094254 854.103027,1.094254 1280.827271,1.094254 
	C1280.827271,253.333237 1280.827271,505.666595 1280.827271,758.000000 
	C1114.792236,758.000000 948.646118,758.000000 782.000000,758.000000 
M491.427826,481.299957 
	C491.990692,481.518097 492.553558,481.736206 493.029938,481.959839 
	C493.029938,481.959839 493.025970,481.873260 493.297546,482.521027 
	C494.702515,483.328064 496.034088,484.319305 497.524109,484.912781 
	C508.694489,489.362091 520.328308,490.225494 532.270447,490.100037 
	C549.073730,489.923523 564.062622,484.457855 577.368896,474.906555 
	C599.761475,458.832916 613.010498,436.898956 616.941650,409.417633 
	C619.805542,389.397339 617.033508,370.419037 608.102661,352.194519 
	C600.205444,336.079132 588.336731,323.156769 575.943420,310.597900 
	C574.054016,308.683197 571.660828,307.265533 569.371582,305.592712 
	C569.371582,305.592712 569.370972,305.461243 569.469299,304.737488 
	C569.068481,303.666046 568.892334,302.425751 568.233032,301.548584 
	C559.316406,289.685181 553.048523,276.545837 549.019470,262.291840 
	C547.616150,257.326904 546.383240,252.277969 544.498901,247.493317 
	C541.741882,240.493042 536.589417,235.709656 528.862183,235.313553 
	C521.779663,234.950500 515.898071,238.370819 513.342041,244.995544 
	C510.860474,251.427307 509.769287,258.395538 508.043854,265.027344 
	C508.043854,265.027344 508.145020,265.005249 507.559235,265.426575 
	C506.411774,269.342072 505.264313,273.257568 504.065399,277.054810 
	C504.065399,277.054810 504.184601,277.005585 503.759827,277.336884 
	C503.557861,277.629608 503.355896,277.922363 503.165100,278.821381 
	C503.108704,279.218262 503.052277,279.615143 502.372162,280.263916 
	C501.881134,280.702545 501.190948,281.045563 500.927979,281.593628 
	C493.034729,298.043457 480.426361,310.876404 468.528656,324.294891 
	C465.344330,327.886230 463.198120,332.398071 460.113739,335.983124 
	C460.271606,336.148468 460.429504,336.313843 459.882385,336.578522 
	C458.574249,337.777710 456.868958,338.748810 456.026611,340.215546 
	C452.331299,346.649933 448.450409,353.038666 445.504486,359.820831 
	C443.582581,364.245331 443.150116,369.316772 442.026398,374.017639 
	C442.026398,374.017639 442.107452,373.994476 441.511017,374.461151 
	C441.022461,375.830811 440.195740,377.177887 440.102448,378.573975 
	C439.637665,385.528809 438.931915,392.507111 439.100891,399.457916 
	C439.841156,429.912445 452.209991,454.653412 476.333466,473.360535 
	C477.955475,474.618317 480.187286,475.089722 482.048584,475.937103 
	C482.048584,475.937103 482.040741,475.849945 482.290985,476.482086 
	C483.255524,476.951477 484.220093,477.420868 485.038696,477.927795 
	C485.038696,477.927795 485.003540,477.781250 485.452911,478.219574 
	C486.023193,478.455994 486.593506,478.692413 487.023956,478.973328 
	C487.023956,478.973328 486.980469,478.833160 487.429138,479.259125 
	C487.995148,479.489380 488.561127,479.719666 489.009918,479.981934 
	C489.009918,479.981934 488.978455,479.864563 489.420135,480.290497 
	C489.983429,480.513550 490.546722,480.736603 491.007812,480.992828 
	C491.007812,480.992828 490.974945,480.890533 491.427826,481.299957 
M715.344116,302.588959 
	C715.344116,302.588959 715.334656,302.521118 715.430603,301.803375 
	C714.458435,301.020081 713.486206,300.236786 712.827209,299.094452 
	C712.827209,299.094452 712.535706,299.471069 712.571228,298.732391 
	C710.215637,295.985565 707.860046,293.238739 705.574341,290.420837 
	C705.574341,290.420837 705.476501,290.440308 705.631531,289.689301 
	C704.383972,288.138306 703.136414,286.587280 701.957336,285.040375 
	C701.957336,285.040375 701.945740,285.107971 701.933228,284.353760 
	C701.150330,282.543976 700.399658,280.719482 699.579285,278.926880 
	C694.472412,267.768402 688.667847,256.870270 684.409851,245.397675 
	C679.383850,231.855820 675.876892,217.756836 671.278748,204.044479 
	C670.228882,200.913651 667.406677,198.377151 665.767700,195.223938 
	C665.653259,195.346390 665.538879,195.468857 665.364441,194.874847 
	C663.531128,193.336334 661.936401,191.148193 659.823120,190.372345 
	C650.930786,187.107697 641.382935,192.171066 638.564026,202.180954 
	C631.119568,228.616379 623.461426,254.931168 610.499634,279.357971 
	C606.762268,286.401093 608.366394,293.117737 612.315491,299.678894 
	C618.141907,309.359039 632.357788,310.762299 638.306030,303.027985 
	C641.009399,299.512848 643.315552,295.659424 645.509521,291.793549 
	C648.233459,286.993744 650.654541,282.022095 653.897644,275.798157 
	C656.964233,280.717316 659.360046,284.059937 661.246399,287.668823 
	C672.301331,308.819336 687.618225,326.753204 703.869995,343.922150 
	C712.664856,353.213440 721.989990,362.010590 731.234070,370.865479 
	C735.467773,374.920868 740.083008,378.577911 744.606567,382.427734 
	C744.606567,382.427734 744.603821,382.509918 744.505615,383.244202 
	C748.427917,389.150085 752.350159,395.056000 756.751343,401.234711 
	C756.887268,401.757690 757.023132,402.280701 756.910034,403.243103 
	C757.335571,403.804230 757.761047,404.365356 758.100769,404.916656 
	C758.100769,404.916656 758.112061,404.831055 758.047241,405.667938 
	C758.461243,407.601654 758.599915,409.647125 759.332581,411.451447 
	C765.316284,426.189026 768.020630,441.499054 766.975342,457.345673 
	C766.530701,464.086639 765.785095,470.940674 764.022949,477.430176 
	C761.473816,486.818298 758.132935,496.020630 754.628052,505.108734 
	C752.621094,510.312653 749.620728,515.133362 747.015381,520.045288 
	C747.015381,520.045288 747.096863,519.993286 746.684692,520.348999 
	C746.470032,520.641602 746.255310,520.934143 746.078735,521.036743 
	C746.078735,521.036743 746.268555,521.075745 745.630859,521.353333 
	C744.283875,522.586121 742.933350,523.815063 741.590454,525.052307 
	C732.687073,533.255188 724.458374,542.384949 714.734436,549.459717 
	C697.693909,561.857605 677.877625,567.343445 656.888855,566.789612 
	C634.262390,566.192444 614.043457,558.131592 596.137695,544.242310 
	C594.542114,543.004639 592.368652,542.512085 590.403320,541.667542 
	C590.403320,541.667542 590.395691,541.607483 590.330261,540.911499 
	C583.952454,534.921814 578.006592,528.358276 571.057617,523.127319 
	C565.672302,519.073425 558.836487,520.554077 553.529297,525.025146 
	C546.015869,531.354919 543.295410,540.811646 548.477722,549.144531 
	C552.498230,555.609253 558.437134,561.001038 564.018738,566.353088 
	C584.549805,586.039368 608.381775,599.662170 636.744629,604.347168 
	C659.778870,608.152100 682.522888,606.913208 704.516846,598.622192 
	C723.562256,591.442566 740.554810,580.768799 755.419189,566.835815 
	C756.839600,565.504333 757.428406,563.285828 758.613647,561.500549 
	C758.613647,561.500549 758.404358,561.530334 758.871948,561.281433 
	C759.068604,560.992737 759.265198,560.704041 759.538269,560.397156 
	C759.538269,560.397156 759.471680,560.355530 760.189880,560.452087 
	C761.766296,559.355469 763.691772,558.542786 764.856445,557.111145 
	C769.046265,551.961121 773.112732,546.697998 776.982971,541.303406 
	C786.266418,528.363647 792.950439,514.081604 797.598145,498.919556 
	C803.258423,480.454041 805.031189,461.430542 803.915649,442.204742 
	C802.727966,421.734100 797.618958,402.213501 788.450806,383.811310 
	C780.281006,367.412842 769.042725,353.245026 756.235596,340.321533 
	C752.508240,336.560333 747.789368,333.781769 743.457336,330.548950 
	C743.457336,330.548950 743.452393,330.481415 743.416138,329.840820 
	C742.766907,329.431244 742.117615,329.021698 741.370728,328.609283 
	C741.370728,328.609283 741.363647,328.511810 741.464661,327.795074 
	C741.082886,326.905884 740.924072,325.789551 740.285156,325.162445 
	C733.637573,318.637604 726.945129,312.157196 720.174377,305.760529 
	C719.153259,304.795837 717.666382,304.324219 716.719055,303.630280 
	C716.719055,303.630280 716.401062,303.600830 716.205505,303.148102 
	C716.010071,302.864136 715.745789,302.677887 715.344116,302.588959 
z"/>
<path fill="#FBFDFE" opacity="1.000000" stroke="none" 
	d="
M757.159058,402.803680 
	C757.023132,402.280701 756.887268,401.757690 756.452026,400.729370 
	C752.303040,394.319366 748.453430,388.414642 744.603821,382.509918 
	C744.603821,382.509918 744.606567,382.427734 744.408936,382.126190 
	C736.110657,373.462830 728.255859,364.844666 719.860657,356.789703 
	C698.894592,336.673157 679.084778,315.645447 664.587158,290.185303 
	C661.087402,284.039062 657.646179,277.859497 653.774780,270.978577 
	C649.385315,279.929199 645.458191,288.134308 641.352722,296.249237 
	C637.740967,303.388367 631.931213,306.676941 624.874268,305.873962 
	C613.570801,304.587799 606.564514,290.941010 612.443420,279.538971 
	C624.737000,255.696060 633.064453,230.538269 639.406433,204.611221 
	C642.230896,193.064529 654.214661,185.939758 665.424438,195.591324 
	C665.538879,195.468857 665.653259,195.346390 665.744873,195.713135 
	C666.868103,198.399445 668.366028,200.485596 669.100342,202.812683 
	C672.494507,213.569305 675.688782,224.389206 678.931335,235.193451 
	C684.250671,252.917511 690.873535,270.037720 701.945740,285.107971 
	C701.945740,285.107971 701.957336,285.040375 701.997437,285.364929 
	C703.183899,287.273071 704.330200,288.856689 705.476501,290.440308 
	C705.476501,290.440308 705.574341,290.420837 705.666626,290.768433 
	C708.017822,293.901062 710.276794,296.686066 712.535706,299.471069 
	C712.535706,299.471069 712.827209,299.094452 712.790161,299.553772 
	C713.613647,300.849121 714.474182,301.685120 715.334656,302.521118 
	C715.334656,302.521118 715.344116,302.588959 715.476196,302.817200 
	C715.803894,303.328613 716.068115,303.513763 716.401062,303.600830 
	C716.401062,303.600830 716.719055,303.630280 716.711548,303.923401 
	C724.923889,312.314941 733.143799,320.413361 741.363647,328.511780 
	C741.363647,328.511810 741.370728,328.609283 741.548767,328.862427 
	C742.302002,329.570862 742.877197,330.026154 743.452393,330.481445 
	C743.452393,330.481415 743.457336,330.548950 743.648682,330.837402 
	C749.532288,336.723602 755.514221,342.058594 760.870361,347.961334 
	C798.023743,388.906067 810.239197,436.474426 797.889221,490.271118 
	C791.709839,517.188599 778.182434,540.230347 759.471680,560.355530 
	C759.471680,560.355530 759.538269,560.397156 759.256836,560.523682 
	C758.785095,560.943542 758.594727,561.236938 758.404358,561.530334 
	C758.404358,561.530334 758.613647,561.500549 758.219727,561.650635 
	C752.445312,566.510132 747.330505,571.571228 741.640259,575.870850 
	C709.129883,600.436218 672.887329,610.036560 632.628845,601.770874 
	C600.175781,595.107910 574.793701,576.522522 552.595825,552.896667 
	C551.918335,552.175659 551.367859,551.319763 550.841003,550.475037 
	C546.069336,542.825500 547.709839,532.214355 554.536743,526.454102 
	C560.919373,521.068726 568.274780,521.877197 575.920593,528.749512 
	C580.720337,533.063599 585.568970,537.323364 590.395691,541.607483 
	C590.395691,541.607483 590.403320,541.667542 590.601440,541.950562 
	C607.217896,556.471313 626.170837,565.481567 647.730530,567.942261 
	C678.247253,571.425232 705.028564,561.934814 727.883240,541.845703 
	C734.773560,535.789124 740.181580,528.046204 746.268555,521.075806 
	C746.268555,521.075745 746.078735,521.036743 746.339966,521.031616 
	C746.766479,520.682068 746.931641,520.337646 747.096863,519.993286 
	C747.096863,519.993286 747.015381,520.045288 747.358398,519.965332 
	C748.137085,519.389893 748.630005,518.933472 749.000366,518.393188 
	C766.477417,492.895721 772.517090,464.681610 767.470825,434.425049 
	C765.785645,424.321136 761.311401,414.682404 758.112061,404.831055 
	C758.112061,404.831055 758.100769,404.916656 758.132080,404.601929 
	C757.828552,403.792694 757.493835,403.298187 757.159058,402.803680 
z"/>
<path fill="#FBFDFE" opacity="1.000000" stroke="none" 
	d="
M502.995850,280.012024 
	C503.052277,279.615143 503.108704,279.218262 503.430664,278.419128 
	C503.859039,277.679749 504.021820,277.342682 504.184601,277.005585 
	C504.184601,277.005585 504.065399,277.054810 504.402710,276.924774 
	C505.875000,272.864899 507.010010,268.935089 508.145020,265.005249 
	C508.145020,265.005249 508.043854,265.027344 508.352051,264.915405 
	C510.196991,259.793365 511.786011,254.798599 513.258179,249.769608 
	C515.443848,242.303543 520.910889,237.414001 527.570618,237.092300 
	C534.098755,236.776962 540.208740,241.274689 542.776733,248.597885 
	C544.371765,253.146378 545.600037,257.822968 547.013855,262.435608 
	C551.829468,278.146698 558.280701,293.009766 569.370972,305.461243 
	C569.370972,305.461243 569.371582,305.592712 569.571533,305.902649 
	C575.945740,312.956757 582.044006,319.772400 588.306824,326.433289 
	C623.307922,363.659332 624.868164,418.018280 596.174744,454.378174 
	C575.999146,479.944458 549.551758,491.740173 516.934998,487.845245 
	C508.843018,486.878967 500.989227,483.917603 493.025970,481.873260 
	C493.025970,481.873260 493.029938,481.959839 492.927246,481.663239 
	C492.208008,481.207947 491.591461,481.049225 490.974945,480.890533 
	C490.974945,480.890533 491.007812,480.992828 490.902832,480.691406 
	C490.191406,480.214874 489.584930,480.039734 488.978455,479.864563 
	C488.978455,479.864563 489.009918,479.981934 488.916260,479.675507 
	C488.208527,479.190460 487.594513,479.011810 486.980469,478.833160 
	C486.980469,478.833160 487.023956,478.973328 487.018707,478.736420 
	C486.343475,478.260101 485.673523,478.020691 485.003540,477.781250 
	C485.003540,477.781250 485.038696,477.927795 484.990967,477.592926 
	C483.975739,476.788696 483.008240,476.319305 482.040741,475.849945 
	C482.040741,475.849945 482.048584,475.937103 481.960205,475.617310 
	C481.390259,474.841003 480.956390,474.316986 480.420197,473.937653 
	C453.476654,454.877258 440.820862,428.535828 440.879578,395.854980 
	C440.892670,388.567413 441.677765,381.281281 442.107452,373.994476 
	C442.107452,373.994476 442.026398,374.017639 442.328674,373.848389 
	C446.300415,360.161224 452.596252,347.911102 460.587372,336.479248 
	C460.429504,336.313843 460.271606,336.148468 460.597412,336.026367 
	C469.859009,325.940186 479.139191,316.193604 487.249237,305.555054 
	C493.283539,297.639465 497.802185,288.568451 502.995850,280.012024 
M494.857269,350.730927 
	C492.697540,353.277588 490.537811,355.824249 487.782196,358.683594 
	C472.050629,377.762604 469.188934,398.463745 480.109680,420.801941 
	C491.984406,445.091461 517.582764,457.932587 541.733826,450.897308 
	C563.825500,444.461975 576.469727,428.440369 581.333191,406.642914 
	C586.487915,383.540253 577.043152,365.019653 560.310181,348.770721 
	C549.539124,336.638458 538.768066,324.506165 527.860718,312.220306 
	C523.276611,318.207001 518.252319,324.768646 512.718262,331.731140 
	C506.949890,337.941681 501.181519,344.152222 494.857269,350.730927 
z"/>
<path fill="#3F61D3" opacity="1.000000" stroke="none" 
	d="
M665.394409,195.233093 
	C654.214661,185.939758 642.230896,193.064529 639.406433,204.611221 
	C633.064453,230.538269 624.737000,255.696060 612.443420,279.538971 
	C606.564514,290.941010 613.570801,304.587799 624.874268,305.873962 
	C631.931213,306.676941 637.740967,303.388367 641.352722,296.249237 
	C645.458191,288.134308 649.385315,279.929199 653.774780,270.978577 
	C657.646179,277.859497 661.087402,284.039062 664.587158,290.185303 
	C679.084778,315.645447 698.894592,336.673157 719.860657,356.789703 
	C728.255859,364.844666 736.110657,373.462830 744.368286,382.120117 
	C740.083008,378.577911 735.467773,374.920868 731.234070,370.865479 
	C721.989990,362.010590 712.664856,353.213440 703.869995,343.922150 
	C687.618225,326.753204 672.301331,308.819336 661.246399,287.668823 
	C659.360046,284.059937 656.964233,280.717316 653.897644,275.798157 
	C650.654541,282.022095 648.233459,286.993744 645.509521,291.793549 
	C643.315552,295.659424 641.009399,299.512848 638.306030,303.027985 
	C632.357788,310.762299 618.141907,309.359039 612.315491,299.678894 
	C608.366394,293.117737 606.762268,286.401093 610.499634,279.357971 
	C623.461426,254.931168 631.119568,228.616379 638.564026,202.180954 
	C641.382935,192.171066 650.930786,187.107697 659.823120,190.372345 
	C661.936401,191.148193 663.531128,193.336334 665.394409,195.233093 
z"/>
<path fill="#3F61D3" opacity="1.000000" stroke="none" 
	d="
M590.362976,541.259521 
	C585.568970,537.323364 580.720337,533.063599 575.920593,528.749512 
	C568.274780,521.877197 560.919373,521.068726 554.536743,526.454102 
	C547.709839,532.214355 546.069336,542.825500 550.841003,550.475037 
	C551.367859,551.319763 551.918335,552.175659 552.595825,552.896667 
	C574.793701,576.522522 600.175781,595.107910 632.628845,601.770874 
	C672.887329,610.036560 709.129883,600.436218 741.640259,575.870850 
	C747.330505,571.571228 752.445312,566.510132 758.114563,561.639893 
	C757.428406,563.285828 756.839600,565.504333 755.419189,566.835815 
	C740.554810,580.768799 723.562256,591.442566 704.516846,598.622192 
	C682.522888,606.913208 659.778870,608.152100 636.744629,604.347168 
	C608.381775,599.662170 584.549805,586.039368 564.018738,566.353088 
	C558.437134,561.001038 552.498230,555.609253 548.477722,549.144531 
	C543.295410,540.811646 546.015869,531.354919 553.529297,525.025146 
	C558.836487,520.554077 565.672302,519.073425 571.057617,523.127319 
	C578.006592,528.358276 583.952454,534.921814 590.362976,541.259521 
z"/>
<path fill="#3F61D3" opacity="1.000000" stroke="none" 
	d="
M493.161743,482.197144 
	C500.989227,483.917603 508.843018,486.878967 516.934998,487.845245 
	C549.551758,491.740173 575.999146,479.944458 596.174744,454.378174 
	C624.868164,418.018280 623.307922,363.659332 588.306824,326.433289 
	C582.044006,319.772400 575.945740,312.956757 569.636108,305.915283 
	C571.660828,307.265533 574.054016,308.683197 575.943420,310.597900 
	C588.336731,323.156769 600.205444,336.079132 608.102661,352.194519 
	C617.033508,370.419037 619.805542,389.397339 616.941650,409.417633 
	C613.010498,436.898956 599.761475,458.832916 577.368896,474.906555 
	C564.062622,484.457855 549.073730,489.923523 532.270447,490.100037 
	C520.328308,490.225494 508.694489,489.362091 497.524109,484.912781 
	C496.034088,484.319305 494.702515,483.328064 493.161743,482.197144 
z"/>
<path fill="#3F61D3" opacity="1.000000" stroke="none" 
	d="
M759.830811,560.403809 
	C778.182434,540.230347 791.709839,517.188599 797.889221,490.271118 
	C810.239197,436.474426 798.023743,388.906067 760.870361,347.961334 
	C755.514221,342.058594 749.532288,336.723602 743.682495,330.839294 
	C747.789368,333.781769 752.508240,336.560333 756.235596,340.321533 
	C769.042725,353.245026 780.281006,367.412842 788.450806,383.811310 
	C797.618958,402.213501 802.727966,421.734100 803.915649,442.204742 
	C805.031189,461.430542 803.258423,480.454041 797.598145,498.919556 
	C792.950439,514.081604 786.266418,528.363647 776.982971,541.303406 
	C773.112732,546.697998 769.046265,551.961121 764.856445,557.111145 
	C763.691772,558.542786 761.766296,559.355469 759.830811,560.403809 
z"/>
<path fill="#3F61D3" opacity="1.000000" stroke="none" 
	d="
M745.949707,521.214600 
	C740.181580,528.046204 734.773560,535.789124 727.883240,541.845703 
	C705.028564,561.934814 678.247253,571.425232 647.730530,567.942261 
	C626.170837,565.481567 607.217896,556.471313 590.631531,541.953491 
	C592.368652,542.512085 594.542114,543.004639 596.137695,544.242310 
	C614.043457,558.131592 634.262390,566.192444 656.888855,566.789612 
	C677.877625,567.343445 697.693909,561.857605 714.734436,549.459717 
	C724.458374,542.384949 732.687073,533.255188 741.590454,525.052307 
	C742.933350,523.815063 744.283875,522.586121 745.949707,521.214600 
z"/>
<path fill="#3F61D3" opacity="1.000000" stroke="none" 
	d="
M569.420166,305.099365 
	C558.280701,293.009766 551.829468,278.146698 547.013855,262.435608 
	C545.600037,257.822968 544.371765,253.146378 542.776733,248.597885 
	C540.208740,241.274689 534.098755,236.776962 527.570618,237.092300 
	C520.910889,237.414001 515.443848,242.303543 513.258179,249.769608 
	C511.786011,254.798599 510.196991,259.793365 508.363861,264.965820 
	C509.769287,258.395538 510.860474,251.427307 513.342041,244.995544 
	C515.898071,238.370819 521.779663,234.950500 528.862183,235.313553 
	C536.589417,235.709656 541.741882,240.493042 544.498901,247.493317 
	C546.383240,252.277969 547.616150,257.326904 549.019470,262.291840 
	C553.048523,276.545837 559.316406,289.685181 568.233032,301.548584 
	C568.892334,302.425751 569.068481,303.666046 569.420166,305.099365 
z"/>
<path fill="#3F61D3" opacity="1.000000" stroke="none" 
	d="
M758.079651,405.249512 
	C761.311401,414.682404 765.785645,424.321136 767.470825,434.425049 
	C772.517090,464.681610 766.477417,492.895721 749.000366,518.393188 
	C748.630005,518.933472 748.137085,519.389893 747.384521,520.006042 
	C749.620728,515.133362 752.621094,510.312653 754.628052,505.108734 
	C758.132935,496.020630 761.473816,486.818298 764.022949,477.430176 
	C765.785095,470.940674 766.530701,464.086639 766.975342,457.345673 
	C768.020630,441.499054 765.316284,426.189026 759.332581,411.451447 
	C758.599915,409.647125 758.461243,407.601654 758.079651,405.249512 
z"/>
<path fill="#3F61D3" opacity="1.000000" stroke="none" 
	d="
M441.809235,374.227814 
	C441.677765,381.281281 440.892670,388.567413 440.879578,395.854980 
	C440.820862,428.535828 453.476654,454.877258 480.420197,473.937653 
	C480.956390,474.316986 481.390259,474.841003 482.003662,475.612183 
	C480.187286,475.089722 477.955475,474.618317 476.333466,473.360535 
	C452.209991,454.653412 439.841156,429.912445 439.100891,399.457916 
	C438.931915,392.507111 439.637665,385.528809 440.102448,378.573975 
	C440.195740,377.177887 441.022461,375.830811 441.809235,374.227814 
z"/>
<path fill="#3F61D3" opacity="1.000000" stroke="none" 
	d="
M701.939453,284.730865 
	C690.873535,270.037720 684.250671,252.917511 678.931335,235.193451 
	C675.688782,224.389206 672.494507,213.569305 669.100342,202.812683 
	C668.366028,200.485596 666.868103,198.399445 665.561096,195.884705 
	C667.406677,198.377151 670.228882,200.913651 671.278748,204.044479 
	C675.876892,217.756836 679.383850,231.855820 684.409851,245.397675 
	C688.667847,256.870270 694.472412,267.768402 699.579285,278.926880 
	C700.399658,280.719482 701.150330,282.543976 701.939453,284.730865 
z"/>
<path fill="#3F61D3" opacity="1.000000" stroke="none" 
	d="
M502.684021,280.137970 
	C497.802185,288.568451 493.283539,297.639465 487.249237,305.555054 
	C479.139191,316.193604 469.859009,325.940186 460.828217,336.278503 
	C463.198120,332.398071 465.344330,327.886230 468.528656,324.294891 
	C480.426361,310.876404 493.034729,298.043457 500.927979,281.593628 
	C501.190948,281.045563 501.881134,280.702545 502.684021,280.137970 
z"/>
<path fill="#3F61D3" opacity="1.000000" stroke="none" 
	d="
M460.234863,336.528870 
	C452.596252,347.911102 446.300415,360.161224 442.340698,373.888794 
	C443.150116,369.316772 443.582581,364.245331 445.504486,359.820831 
	C448.450409,353.038666 452.331299,346.649933 456.026611,340.215546 
	C456.868958,338.748810 458.574249,337.777710 460.234863,336.528870 
z"/>
<path fill="#3F61D3" opacity="1.000000" stroke="none" 
	d="
M741.414185,328.153442 
	C733.143799,320.413361 724.923889,312.314941 716.549438,303.920502 
	C717.666382,304.324219 719.153259,304.795837 720.174377,305.760529 
	C726.945129,312.157196 733.637573,318.637604 740.285156,325.162445 
	C740.924072,325.789551 741.082886,326.905884 741.414185,328.153442 
z"/>
<path fill="#3F61D3" opacity="1.000000" stroke="none" 
	d="
M744.554688,382.877075 
	C748.453430,388.414642 752.303040,394.319366 756.212524,400.592987 
	C752.350159,395.056000 748.427917,389.150085 744.554688,382.877075 
z"/>
<path fill="#3F61D3" opacity="1.000000" stroke="none" 
	d="
M712.553467,299.101746 
	C710.276794,296.686066 708.017822,293.901062 705.631653,290.803986 
	C707.860046,293.238739 710.215637,295.985565 712.553467,299.101746 
z"/>
<path fill="#3F61D3" opacity="1.000000" stroke="none" 
	d="
M507.852112,265.215912 
	C507.010010,268.935089 505.875000,272.864899 504.428436,276.983887 
	C505.264313,273.257568 506.411774,269.342072 507.852112,265.215912 
z"/>
<path fill="#3F61D3" opacity="1.000000" stroke="none" 
	d="
M705.554016,290.064819 
	C704.330200,288.856689 703.183899,287.273071 701.963257,285.362854 
	C703.136414,286.587280 704.383972,288.138306 705.554016,290.064819 
z"/>
<path fill="#3F61D3" opacity="1.000000" stroke="none" 
	d="
M715.382629,302.162231 
	C714.474182,301.685120 713.613647,300.849121 712.633606,299.733307 
	C713.486206,300.236786 714.458435,301.020081 715.382629,302.162231 
z"/>
<path fill="#3F61D3" opacity="1.000000" stroke="none" 
	d="
M482.165863,476.166016 
	C483.008240,476.319305 483.975739,476.788696 485.063934,477.574158 
	C484.220093,477.420868 483.255524,476.951477 482.165863,476.166016 
z"/>
<path fill="#3F61D3" opacity="1.000000" stroke="none" 
	d="
M757.034546,403.023376 
	C757.493835,403.298187 757.828552,403.792694 758.174927,404.606812 
	C757.761047,404.365356 757.335571,403.804230 757.034546,403.023376 
z"/>
<path fill="#3F61D3" opacity="1.000000" stroke="none" 
	d="
M743.434265,330.161133 
	C742.877197,330.026154 742.302002,329.570862 741.597595,328.863892 
	C742.117615,329.021698 742.766907,329.431244 743.434265,330.161133 
z"/>
<path fill="#3F61D3" opacity="1.000000" stroke="none" 
	d="
M485.228210,478.000427 
	C485.673523,478.020691 486.343475,478.260101 487.088623,478.714172 
	C486.593506,478.692413 486.023193,478.455994 485.228210,478.000427 
z"/>
<path fill="#3F61D3" opacity="1.000000" stroke="none" 
	d="
M487.204803,479.046143 
	C487.594513,479.011810 488.208527,479.190460 488.974854,479.659485 
	C488.561127,479.719666 487.995148,479.489380 487.204803,479.046143 
z"/>
<path fill="#3F61D3" opacity="1.000000" stroke="none" 
	d="
M489.199280,480.077515 
	C489.584930,480.039734 490.191406,480.214874 490.953949,480.674835 
	C490.546722,480.736603 489.983429,480.513550 489.199280,480.077515 
z"/>
<path fill="#3F61D3" opacity="1.000000" stroke="none" 
	d="
M491.201385,481.095245 
	C491.591461,481.049225 492.208008,481.207947 492.970459,481.660492 
	C492.553558,481.736206 491.990692,481.518097 491.201385,481.095245 
z"/>
<path fill="#3F61D3" opacity="1.000000" stroke="none" 
	d="
M746.890747,520.171143 
	C746.931641,520.337646 746.766479,520.682068 746.320923,521.126587 
	C746.255310,520.934143 746.470032,520.641602 746.890747,520.171143 
z"/>
<path fill="#3F61D3" opacity="1.000000" stroke="none" 
	d="
M716.303284,303.374451 
	C716.068115,303.513763 715.803894,303.328613 715.510498,302.817383 
	C715.745789,302.677887 716.010071,302.864136 716.303284,303.374451 
z"/>
<path fill="#3F61D3" opacity="1.000000" stroke="none" 
	d="
M758.638184,561.405884 
	C758.594727,561.236938 758.785095,560.943542 759.218628,560.532715 
	C759.265198,560.704041 759.068604,560.992737 758.638184,561.405884 
z"/>
<path fill="#3F61D3" opacity="1.000000" stroke="none" 
	d="
M503.972229,277.171234 
	C504.021820,277.342682 503.859039,277.679749 503.425110,278.115967 
	C503.355896,277.922363 503.557861,277.629608 503.972229,277.171234 
z"/>
<path fill="#3F61D3" opacity="1.000000" stroke="none" 
	d="
M560.667053,349.329407 
	C577.043152,365.019653 586.487915,383.540253 581.333191,406.642914 
	C576.469727,428.440369 563.825500,444.461975 541.733826,450.897308 
	C517.582764,457.932587 491.984406,445.091461 480.109680,420.801941 
	C469.188934,398.463745 472.050629,377.762604 488.241882,358.690033 
	C488.701599,358.696472 489.027008,359.020111 488.924347,359.347961 
	C487.819092,361.199615 486.847473,362.744812 485.809235,364.243896 
	C472.283875,383.772827 472.494873,407.285767 485.777466,426.904663 
	C499.876953,447.730072 523.856628,455.174255 544.513550,447.999634 
	C560.506836,442.444824 570.965942,430.724274 576.764099,415.399719 
	C585.293457,392.856842 580.205444,372.666199 563.778870,355.185059 
	C562.325806,353.638672 561.220886,351.765106 560.133057,349.865540 
	C560.430237,349.568176 560.548645,349.448792 560.667053,349.329407 
z"/>
<path fill="#3F61D3" opacity="1.000000" stroke="none" 
	d="
M513.227966,331.330322 
	C518.252319,324.768646 523.276611,318.207001 527.860718,312.220306 
	C538.768066,324.506165 549.539124,336.638458 560.488647,349.050049 
	C560.548645,349.448792 560.430237,349.568176 559.833008,349.730133 
	C550.419312,339.764343 541.339905,329.879547 532.617371,319.689331 
	C528.905029,315.352356 527.377869,315.294098 524.105774,319.905792 
	C521.073425,324.179565 517.423279,328.014984 513.841736,331.864197 
	C513.501465,331.566772 513.364746,331.448547 513.227966,331.330322 
z"/>
<path fill="#3F61D3" opacity="1.000000" stroke="none" 
	d="
M495.413177,350.362762 
	C501.181519,344.152222 506.949890,337.941681 512.973145,331.530731 
	C513.364746,331.448547 513.501465,331.566772 513.731323,332.183411 
	C507.900299,338.801239 501.976257,344.920654 495.892822,350.870361 
	C495.733459,350.700653 495.413177,350.362762 495.413177,350.362762 
z"/>
<path fill="#3F61D3" opacity="1.000000" stroke="none" 
	d="
M488.539825,358.533691 
	C490.537811,355.824249 492.697540,353.277588 495.135223,350.546844 
	C495.413177,350.362762 495.733459,350.700653 495.784546,351.189117 
	C493.566101,354.125092 491.296539,356.572601 489.027008,359.020111 
	C489.027008,359.020111 488.701599,358.696472 488.539825,358.533691 
z"/>
<path fill="#285FF7" opacity="1.000000" stroke="none" 
	d="
M488.924347,359.347961 
	C491.296539,356.572601 493.566101,354.125092 495.943909,351.358826 
	C501.976257,344.920654 507.900299,338.801239 513.934814,332.362610 
	C517.423279,328.014984 521.073425,324.179565 524.105774,319.905792 
	C527.377869,315.294098 528.905029,315.352356 532.617371,319.689331 
	C541.339905,329.879547 550.419312,339.764343 559.654297,349.908081 
	C561.220886,351.765106 562.325806,353.638672 563.778870,355.185059 
	C580.205444,372.666199 585.293457,392.856842 576.764099,415.399719 
	C570.965942,430.724274 560.506836,442.444824 544.513550,447.999634 
	C523.856628,455.174255 499.876953,447.730072 485.777466,426.904663 
	C472.494873,407.285767 472.283875,383.772827 485.809235,364.243896 
	C486.847473,362.744812 487.819092,361.199615 488.924347,359.347961 
z"/>
</svg>